<svg width="1202" height="52" viewBox="0 0 1202 52" fill="none" xmlns="http://www.w3.org/2000/svg">
<path d="M413.183 34V23.92H417.257C417.355 23.92 417.476 23.9247 417.621 23.934C417.766 23.9387 417.903 23.9527 418.034 23.976C418.594 24.0647 419.061 24.256 419.434 24.55C419.812 24.844 420.094 25.215 420.281 25.663C420.468 26.111 420.561 26.6057 420.561 27.147C420.561 27.693 420.468 28.19 420.281 28.638C420.094 29.086 419.812 29.457 419.434 29.751C419.061 30.045 418.594 30.2363 418.034 30.325C417.903 30.3437 417.763 30.3577 417.614 30.367C417.469 30.3763 417.35 30.381 417.257 30.381H414.646V34H413.183ZM414.646 28.995H417.201C417.294 28.995 417.397 28.9903 417.509 28.981C417.626 28.9717 417.735 28.9553 417.838 28.932C418.137 28.862 418.377 28.7337 418.559 28.547C418.741 28.3557 418.872 28.1363 418.951 27.889C419.03 27.6417 419.07 27.3943 419.07 27.147C419.07 26.8997 419.03 26.6547 418.951 26.412C418.872 26.1647 418.741 25.9477 418.559 25.761C418.377 25.5697 418.137 25.439 417.838 25.369C417.735 25.341 417.626 25.3223 417.509 25.313C417.397 25.3037 417.294 25.299 417.201 25.299H414.646V28.995ZM421.96 34V26.44H423.262V28.274L423.08 28.036C423.174 27.7933 423.295 27.5717 423.444 27.371C423.594 27.1657 423.766 26.9977 423.962 26.867C424.154 26.727 424.366 26.6197 424.599 26.545C424.837 26.4657 425.08 26.419 425.327 26.405C425.575 26.3863 425.813 26.398 426.041 26.44V27.812C425.794 27.7467 425.519 27.728 425.215 27.756C424.917 27.784 424.641 27.8797 424.389 28.043C424.151 28.197 423.962 28.3837 423.822 28.603C423.687 28.8223 423.589 29.0673 423.528 29.338C423.468 29.604 423.437 29.8863 423.437 30.185V34H421.96ZM430.521 34.21C429.765 34.21 429.109 34.0397 428.554 33.699C427.998 33.3583 427.569 32.8893 427.266 32.292C426.967 31.69 426.818 30.997 426.818 30.213C426.818 29.4243 426.972 28.7313 427.28 28.134C427.588 27.532 428.019 27.0653 428.575 26.734C429.13 26.398 429.779 26.23 430.521 26.23C431.277 26.23 431.932 26.4003 432.488 26.741C433.043 27.0817 433.472 27.5507 433.776 28.148C434.079 28.7453 434.231 29.4337 434.231 30.213C434.231 31.0017 434.077 31.697 433.769 32.299C433.465 32.8963 433.036 33.3653 432.481 33.706C431.925 34.042 431.272 34.21 430.521 34.21ZM430.521 32.831C431.244 32.831 431.783 32.5883 432.138 32.103C432.497 31.613 432.677 30.983 432.677 30.213C432.677 29.4243 432.495 28.7943 432.131 28.323C431.771 27.847 431.235 27.609 430.521 27.609C430.031 27.609 429.627 27.721 429.31 27.945C428.992 28.1643 428.757 28.47 428.603 28.862C428.449 29.2493 428.372 29.6997 428.372 30.213C428.372 31.0063 428.554 31.641 428.918 32.117C429.282 32.593 429.816 32.831 430.521 32.831ZM438.772 34.21C438.067 34.21 437.458 34.035 436.945 33.685C436.436 33.335 436.042 32.859 435.762 32.257C435.487 31.6503 435.349 30.969 435.349 30.213C435.349 29.4523 435.489 28.7733 435.769 28.176C436.049 27.574 436.446 27.1003 436.959 26.755C437.477 26.405 438.091 26.23 438.8 26.23C439.514 26.23 440.114 26.405 440.599 26.755C441.089 27.1003 441.458 27.574 441.705 28.176C441.957 28.778 442.083 29.457 442.083 30.213C442.083 30.969 441.957 31.648 441.705 32.25C441.453 32.852 441.082 33.3303 440.592 33.685C440.102 34.035 439.495 34.21 438.772 34.21ZM438.975 32.887C439.456 32.887 439.848 32.7727 440.151 32.544C440.454 32.3153 440.676 32.0003 440.816 31.599C440.956 31.1977 441.026 30.7357 441.026 30.213C441.026 29.6903 440.954 29.2283 440.809 28.827C440.669 28.4257 440.45 28.113 440.151 27.889C439.857 27.665 439.481 27.553 439.024 27.553C438.539 27.553 438.14 27.672 437.827 27.91C437.514 28.148 437.281 28.4677 437.127 28.869C436.978 29.2703 436.903 29.7183 436.903 30.213C436.903 30.7123 436.978 31.165 437.127 31.571C437.281 31.9723 437.51 32.292 437.813 32.53C438.121 32.768 438.508 32.887 438.975 32.887ZM441.026 34V28.561H440.858V23.92H442.328V34H441.026ZM447.136 34.203C446.613 34.203 446.174 34.119 445.82 33.951C445.465 33.783 445.176 33.5637 444.952 33.293C444.732 33.0177 444.564 32.719 444.448 32.397C444.331 32.075 444.252 31.76 444.21 31.452C444.168 31.144 444.147 30.8733 444.147 30.64V26.44H445.631V30.157C445.631 30.451 445.654 30.7543 445.701 31.067C445.752 31.375 445.845 31.662 445.981 31.928C446.121 32.194 446.314 32.4087 446.562 32.572C446.814 32.7353 447.14 32.817 447.542 32.817C447.803 32.817 448.05 32.775 448.284 32.691C448.517 32.6023 448.72 32.4623 448.893 32.271C449.07 32.0797 449.208 31.8277 449.306 31.515C449.408 31.2023 449.46 30.822 449.46 30.374L450.37 30.717C450.37 31.403 450.241 32.0097 449.985 32.537C449.728 33.0597 449.359 33.468 448.879 33.762C448.398 34.056 447.817 34.203 447.136 34.203ZM449.635 34V31.816H449.46V26.44H450.937V34H449.635ZM456.134 34.21C455.359 34.21 454.701 34.0373 454.16 33.692C453.619 33.3467 453.203 32.873 452.914 32.271C452.629 31.669 452.485 30.9853 452.48 30.22C452.485 29.4407 452.634 28.7523 452.928 28.155C453.222 27.553 453.642 27.0817 454.188 26.741C454.734 26.4003 455.39 26.23 456.155 26.23C456.981 26.23 457.686 26.4353 458.269 26.846C458.857 27.2567 459.244 27.819 459.431 28.533L457.975 28.953C457.83 28.5283 457.592 28.1993 457.261 27.966C456.934 27.728 456.559 27.609 456.134 27.609C455.653 27.609 455.259 27.7233 454.951 27.952C454.643 28.176 454.414 28.484 454.265 28.876C454.116 29.268 454.039 29.716 454.034 30.22C454.039 30.9993 454.216 31.6293 454.566 32.11C454.921 32.5907 455.443 32.831 456.134 32.831C456.605 32.831 456.986 32.7237 457.275 32.509C457.569 32.2897 457.793 31.977 457.947 31.571L459.431 31.921C459.184 32.6583 458.775 33.2253 458.206 33.622C457.637 34.014 456.946 34.21 456.134 34.21ZM465.183 34C464.707 34.0933 464.24 34.133 463.783 34.119C463.326 34.105 462.917 34.0163 462.558 33.853C462.199 33.6897 461.928 33.433 461.746 33.083C461.583 32.7703 461.494 32.453 461.48 32.131C461.471 31.8043 461.466 31.4357 461.466 31.025V24.34H462.936V30.955C462.936 31.2583 462.938 31.522 462.943 31.746C462.952 31.97 463.001 32.159 463.09 32.313C463.258 32.6023 463.524 32.768 463.888 32.81C464.257 32.8473 464.688 32.831 465.183 32.761V34ZM460.017 27.616V26.44H465.183V27.616H460.017Z" fill="black"/>
<path d="M478 26.5557L481.5 30.4446L485 26.5557" stroke="black" stroke-width="2"/>
<path d="M513.519 34V25.299H510.166V23.92H518.335V25.299H514.982V34H513.519ZM521.687 34.21C520.936 34.21 520.276 34.0467 519.706 33.72C519.142 33.3887 518.701 32.929 518.383 32.341C518.071 31.7483 517.914 31.0623 517.914 30.283C517.914 29.457 518.068 28.7407 518.376 28.134C518.689 27.5273 519.123 27.0583 519.678 26.727C520.234 26.3957 520.88 26.23 521.617 26.23C522.387 26.23 523.043 26.4097 523.584 26.769C524.126 27.1237 524.529 27.63 524.795 28.288C525.066 28.946 525.173 29.7277 525.117 30.633H523.654V30.101C523.645 29.2237 523.477 28.575 523.15 28.155C522.828 27.735 522.336 27.525 521.673 27.525C520.941 27.525 520.39 27.756 520.021 28.218C519.653 28.68 519.468 29.3473 519.468 30.22C519.468 31.0507 519.653 31.6947 520.021 32.152C520.39 32.6047 520.922 32.831 521.617 32.831C522.075 32.831 522.469 32.7283 522.8 32.523C523.136 32.313 523.398 32.0143 523.584 31.627L525.019 32.082C524.725 32.7587 524.28 33.2837 523.682 33.657C523.085 34.0257 522.42 34.21 521.687 34.21ZM518.992 30.633V29.492H524.389V30.633H518.992ZM535.541 34L535.548 29.289C535.548 28.743 535.408 28.3183 535.128 28.015C534.848 27.707 534.479 27.553 534.022 27.553C533.742 27.553 533.485 27.6183 533.252 27.749C533.023 27.875 532.837 28.0663 532.692 28.323C532.552 28.575 532.482 28.8923 532.482 29.275L531.775 28.918C531.766 28.386 531.878 27.9193 532.111 27.518C532.349 27.1167 532.671 26.8063 533.077 26.587C533.483 26.363 533.938 26.251 534.442 26.251C535.259 26.251 535.891 26.496 536.339 26.986C536.787 27.476 537.011 28.127 537.011 28.939L537.004 34H535.541ZM526.476 34V26.44H527.778V28.624H527.946V34H526.476ZM531.012 34L531.019 29.317C531.019 28.7663 530.879 28.3347 530.599 28.022C530.324 27.7093 529.953 27.553 529.486 27.553C529.024 27.553 528.651 27.7117 528.366 28.029C528.086 28.3463 527.946 28.7617 527.946 29.275L527.246 28.827C527.246 28.3323 527.365 27.8913 527.603 27.504C527.841 27.1167 528.163 26.811 528.569 26.587C528.975 26.363 529.435 26.251 529.948 26.251C530.485 26.251 530.942 26.3653 531.32 26.594C531.698 26.818 531.985 27.133 532.181 27.539C532.382 27.945 532.482 28.4163 532.482 28.953L532.475 34H531.012ZM542.378 34.21C541.654 34.21 541.048 34.035 540.558 33.685C540.068 33.3303 539.697 32.852 539.445 32.25C539.193 31.648 539.067 30.969 539.067 30.213C539.067 29.457 539.19 28.778 539.438 28.176C539.69 27.574 540.058 27.1003 540.544 26.755C541.034 26.405 541.636 26.23 542.35 26.23C543.059 26.23 543.67 26.405 544.184 26.755C544.702 27.1003 545.101 27.574 545.381 28.176C545.661 28.7733 545.801 29.4523 545.801 30.213C545.801 30.969 545.661 31.6503 545.381 32.257C545.105 32.859 544.711 33.335 544.198 33.685C543.689 34.035 543.082 34.21 542.378 34.21ZM538.822 37.36V26.44H540.124V31.879H540.292V37.36H538.822ZM542.175 32.887C542.641 32.887 543.026 32.768 543.33 32.53C543.638 32.292 543.866 31.9723 544.016 31.571C544.17 31.165 544.247 30.7123 544.247 30.213C544.247 29.7183 544.17 29.2703 544.016 28.869C543.866 28.4677 543.635 28.148 543.323 27.91C543.01 27.672 542.611 27.553 542.126 27.553C541.668 27.553 541.29 27.665 540.992 27.889C540.698 28.113 540.478 28.4257 540.334 28.827C540.194 29.2283 540.124 29.6903 540.124 30.213C540.124 30.7357 540.194 31.1977 540.334 31.599C540.474 32.0003 540.695 32.3153 540.999 32.544C541.302 32.7727 541.694 32.887 542.175 32.887ZM547.486 34V23.71H548.949V34H547.486ZM553.186 34.21C552.626 34.21 552.157 34.1073 551.779 33.902C551.401 33.692 551.114 33.4167 550.918 33.076C550.727 32.7307 550.631 32.3527 550.631 31.942C550.631 31.5593 550.699 31.2233 550.834 30.934C550.97 30.6447 551.17 30.3997 551.436 30.199C551.702 29.9937 552.029 29.828 552.416 29.702C552.752 29.604 553.133 29.5177 553.557 29.443C553.982 29.3683 554.428 29.2983 554.894 29.233C555.366 29.1677 555.832 29.1023 556.294 29.037L555.762 29.331C555.772 28.7383 555.646 28.2997 555.384 28.015C555.128 27.7257 554.684 27.581 554.054 27.581C553.658 27.581 553.294 27.6743 552.962 27.861C552.631 28.043 552.4 28.3463 552.269 28.771L550.904 28.351C551.091 27.7023 551.446 27.1867 551.968 26.804C552.496 26.4213 553.196 26.23 554.068 26.23C554.745 26.23 555.333 26.3467 555.832 26.58C556.336 26.8087 556.705 27.1727 556.938 27.672C557.06 27.9193 557.134 28.1807 557.162 28.456C557.19 28.7313 557.204 29.0277 557.204 29.345V34H555.909V32.271L556.161 32.495C555.849 33.0737 555.45 33.5053 554.964 33.79C554.484 34.07 553.891 34.21 553.186 34.21ZM553.445 33.013C553.861 33.013 554.218 32.9407 554.516 32.796C554.815 32.6467 555.055 32.4577 555.237 32.229C555.419 32.0003 555.538 31.7623 555.594 31.515C555.674 31.291 555.718 31.039 555.727 30.759C555.741 30.479 555.748 30.255 555.748 30.087L556.224 30.262C555.762 30.332 555.342 30.395 554.964 30.451C554.586 30.507 554.243 30.563 553.935 30.619C553.632 30.6703 553.361 30.7333 553.123 30.808C552.923 30.878 552.743 30.962 552.584 31.06C552.43 31.158 552.307 31.277 552.213 31.417C552.125 31.557 552.08 31.7273 552.08 31.928C552.08 32.124 552.129 32.306 552.227 32.474C552.325 32.6373 552.475 32.768 552.675 32.866C552.876 32.964 553.133 33.013 553.445 33.013ZM563.348 34C562.872 34.0933 562.405 34.133 561.948 34.119C561.491 34.105 561.082 34.0163 560.723 33.853C560.364 33.6897 560.093 33.433 559.911 33.083C559.748 32.7703 559.659 32.453 559.645 32.131C559.636 31.8043 559.631 31.4357 559.631 31.025V24.34H561.101V30.955C561.101 31.2583 561.103 31.522 561.108 31.746C561.117 31.97 561.166 32.159 561.255 32.313C561.423 32.6023 561.689 32.768 562.053 32.81C562.422 32.8473 562.853 32.831 563.348 32.761V34ZM558.182 27.616V26.44H563.348V27.616H558.182ZM567.953 34.21C567.202 34.21 566.541 34.0467 565.972 33.72C565.407 33.3887 564.966 32.929 564.649 32.341C564.336 31.7483 564.18 31.0623 564.18 30.283C564.18 29.457 564.334 28.7407 564.642 28.134C564.955 27.5273 565.389 27.0583 565.944 26.727C566.499 26.3957 567.146 26.23 567.883 26.23C568.653 26.23 569.309 26.4097 569.85 26.769C570.391 27.1237 570.795 27.63 571.061 28.288C571.332 28.946 571.439 29.7277 571.383 30.633H569.92V30.101C569.911 29.2237 569.743 28.575 569.416 28.155C569.094 27.735 568.602 27.525 567.939 27.525C567.206 27.525 566.656 27.756 566.287 28.218C565.918 28.68 565.734 29.3473 565.734 30.22C565.734 31.0507 565.918 31.6947 566.287 32.152C566.656 32.6047 567.188 32.831 567.883 32.831C568.34 32.831 568.735 32.7283 569.066 32.523C569.402 32.313 569.663 32.0143 569.85 31.627L571.285 32.082C570.991 32.7587 570.545 33.2837 569.948 33.657C569.351 34.0257 568.686 34.21 567.953 34.21ZM565.258 30.633V29.492H570.655V30.633H565.258Z" fill="black"/>
<path d="M584 26.5557L587.5 30.4446L591 26.5557" stroke="black" stroke-width="2"/>
<path d="M621.228 34V23.92H625.19C625.829 23.92 626.366 24.0507 626.8 24.312C627.234 24.5733 627.561 24.9117 627.78 25.327C627.999 25.7377 628.109 26.1717 628.109 26.629C628.109 27.1843 627.971 27.6603 627.696 28.057C627.425 28.4537 627.059 28.7243 626.597 28.869L626.583 28.526C627.227 28.6847 627.722 28.995 628.067 29.457C628.412 29.9143 628.585 30.4487 628.585 31.06C628.585 31.6527 628.466 32.1683 628.228 32.607C627.995 33.0457 627.652 33.3887 627.199 33.636C626.751 33.8787 626.207 34 625.568 34H621.228ZM622.712 32.607H625.344C625.675 32.607 625.972 32.544 626.233 32.418C626.499 32.292 626.707 32.1123 626.856 31.879C627.01 31.641 627.087 31.3587 627.087 31.032C627.087 30.7287 627.019 30.4557 626.884 30.213C626.753 29.9657 626.562 29.772 626.31 29.632C626.063 29.4873 625.771 29.415 625.435 29.415H622.712V32.607ZM622.712 28.036H625.169C625.44 28.036 625.682 27.9823 625.897 27.875C626.116 27.763 626.289 27.6043 626.415 27.399C626.546 27.189 626.611 26.937 626.611 26.643C626.611 26.251 626.48 25.929 626.219 25.677C625.958 25.425 625.608 25.299 625.169 25.299H622.712V28.036ZM630.118 34V23.71H631.581V34H630.118ZM636.966 34.21C636.21 34.21 635.554 34.0397 634.999 33.699C634.444 33.3583 634.014 32.8893 633.711 32.292C633.412 31.69 633.263 30.997 633.263 30.213C633.263 29.4243 633.417 28.7313 633.725 28.134C634.033 27.532 634.465 27.0653 635.02 26.734C635.575 26.398 636.224 26.23 636.966 26.23C637.722 26.23 638.378 26.4003 638.933 26.741C639.488 27.0817 639.918 27.5507 640.221 28.148C640.524 28.7453 640.676 29.4337 640.676 30.213C640.676 31.0017 640.522 31.697 640.214 32.299C639.911 32.8963 639.481 33.3653 638.926 33.706C638.371 34.042 637.717 34.21 636.966 34.21ZM636.966 32.831C637.689 32.831 638.228 32.5883 638.583 32.103C638.942 31.613 639.122 30.983 639.122 30.213C639.122 29.4243 638.94 28.7943 638.576 28.323C638.217 27.847 637.68 27.609 636.966 27.609C636.476 27.609 636.072 27.721 635.755 27.945C635.438 28.1643 635.202 28.47 635.048 28.862C634.894 29.2493 634.817 29.6997 634.817 30.213C634.817 31.0063 634.999 31.641 635.363 32.117C635.727 32.593 636.261 32.831 636.966 32.831ZM645.329 37.57C644.923 37.57 644.529 37.507 644.146 37.381C643.768 37.255 643.423 37.0683 643.11 36.821C642.798 36.5783 642.539 36.2773 642.333 35.918L643.684 35.232C643.848 35.554 644.081 35.7897 644.384 35.939C644.688 36.0883 645.007 36.163 645.343 36.163C645.759 36.163 646.113 36.0883 646.407 35.939C646.701 35.7943 646.923 35.575 647.072 35.281C647.226 34.987 647.301 34.623 647.296 34.189V32.075H647.471V26.44H648.766V34.203C648.766 34.4037 648.759 34.595 648.745 34.777C648.731 34.959 648.706 35.141 648.668 35.323C648.561 35.8317 648.356 36.2517 648.052 36.583C647.754 36.9143 647.371 37.1617 646.904 37.325C646.442 37.4883 645.917 37.57 645.329 37.57ZM645.217 34.21C644.513 34.21 643.904 34.035 643.39 33.685C642.882 33.335 642.487 32.859 642.207 32.257C641.932 31.6503 641.794 30.969 641.794 30.213C641.794 29.4523 641.934 28.7733 642.214 28.176C642.494 27.574 642.891 27.1003 643.404 26.755C643.922 26.405 644.536 26.23 645.245 26.23C645.959 26.23 646.559 26.405 647.044 26.755C647.534 27.1003 647.903 27.574 648.15 28.176C648.402 28.778 648.528 29.457 648.528 30.213C648.528 30.969 648.402 31.648 648.15 32.25C647.898 32.852 647.527 33.3303 647.037 33.685C646.547 34.035 645.941 34.21 645.217 34.21ZM645.42 32.887C645.901 32.887 646.293 32.7727 646.596 32.544C646.9 32.3153 647.121 32.0003 647.261 31.599C647.401 31.1977 647.471 30.7357 647.471 30.213C647.471 29.6903 647.399 29.2283 647.254 28.827C647.114 28.4257 646.895 28.113 646.596 27.889C646.302 27.665 645.927 27.553 645.469 27.553C644.984 27.553 644.585 27.672 644.272 27.91C643.96 28.148 643.726 28.4677 643.572 28.869C643.423 29.2703 643.348 29.7183 643.348 30.213C643.348 30.7123 643.423 31.165 643.572 31.571C643.726 31.9723 643.955 32.292 644.258 32.53C644.566 32.768 644.954 32.887 645.42 32.887Z" fill="black"/>
<path d="M689.238 34V23.92H693.312C693.41 23.92 693.531 23.9247 693.676 23.934C693.82 23.9387 693.958 23.9527 694.089 23.976C694.649 24.0647 695.115 24.256 695.489 24.55C695.867 24.844 696.149 25.215 696.336 25.663C696.522 26.111 696.616 26.6057 696.616 27.147C696.616 27.693 696.522 28.19 696.336 28.638C696.149 29.086 695.867 29.457 695.489 29.751C695.115 30.045 694.649 30.2363 694.089 30.325C693.958 30.3437 693.818 30.3577 693.669 30.367C693.524 30.3763 693.405 30.381 693.312 30.381H690.701V34H689.238ZM690.701 28.995H693.256C693.349 28.995 693.452 28.9903 693.564 28.981C693.68 28.9717 693.79 28.9553 693.893 28.932C694.191 28.862 694.432 28.7337 694.614 28.547C694.796 28.3557 694.926 28.1363 695.006 27.889C695.085 27.6417 695.125 27.3943 695.125 27.147C695.125 26.8997 695.085 26.6547 695.006 26.412C694.926 26.1647 694.796 25.9477 694.614 25.761C694.432 25.5697 694.191 25.439 693.893 25.369C693.79 25.341 693.68 25.3223 693.564 25.313C693.452 25.3037 693.349 25.299 693.256 25.299H690.701V28.995ZM698.015 34V26.44H699.317V28.274L699.135 28.036C699.228 27.7933 699.35 27.5717 699.499 27.371C699.648 27.1657 699.821 26.9977 700.017 26.867C700.208 26.727 700.421 26.6197 700.654 26.545C700.892 26.4657 701.135 26.419 701.382 26.405C701.629 26.3863 701.867 26.398 702.096 26.44V27.812C701.849 27.7467 701.573 27.728 701.27 27.756C700.971 27.784 700.696 27.8797 700.444 28.043C700.206 28.197 700.017 28.3837 699.877 28.603C699.742 28.8223 699.644 29.0673 699.583 29.338C699.522 29.604 699.492 29.8863 699.492 30.185V34H698.015ZM703.569 25.201V23.78H705.032V25.201H703.569ZM703.569 34V26.44H705.032V34H703.569ZM710.368 34.21C709.594 34.21 708.936 34.0373 708.394 33.692C707.853 33.3467 707.438 32.873 707.148 32.271C706.864 31.669 706.719 30.9853 706.714 30.22C706.719 29.4407 706.868 28.7523 707.162 28.155C707.456 27.553 707.876 27.0817 708.422 26.741C708.968 26.4003 709.624 26.23 710.389 26.23C711.215 26.23 711.92 26.4353 712.503 26.846C713.091 27.2567 713.479 27.819 713.665 28.533L712.209 28.953C712.065 28.5283 711.827 28.1993 711.495 27.966C711.169 27.728 710.793 27.609 710.368 27.609C709.888 27.609 709.493 27.7233 709.185 27.952C708.877 28.176 708.649 28.484 708.499 28.876C708.35 29.268 708.273 29.716 708.268 30.22C708.273 30.9993 708.45 31.6293 708.8 32.11C709.155 32.5907 709.678 32.831 710.368 32.831C710.84 32.831 711.22 32.7237 711.509 32.509C711.803 32.2897 712.027 31.977 712.181 31.571L713.665 31.921C713.418 32.6583 713.01 33.2253 712.44 33.622C711.871 34.014 711.18 34.21 710.368 34.21ZM715.026 25.201V23.78H716.489V25.201H715.026ZM715.026 34V26.44H716.489V34H715.026ZM723.897 34V30.283C723.897 29.989 723.872 29.688 723.82 29.38C723.774 29.0673 723.68 28.778 723.54 28.512C723.405 28.246 723.211 28.0313 722.959 27.868C722.712 27.7047 722.388 27.623 721.986 27.623C721.725 27.623 721.478 27.6673 721.244 27.756C721.011 27.84 720.806 27.9777 720.628 28.169C720.456 28.3603 720.318 28.6123 720.215 28.925C720.117 29.2377 720.068 29.618 720.068 30.066L719.158 29.723C719.158 29.037 719.287 28.4327 719.543 27.91C719.8 27.3827 720.169 26.972 720.649 26.678C721.13 26.384 721.711 26.237 722.392 26.237C722.915 26.237 723.354 26.321 723.708 26.489C724.063 26.657 724.35 26.8787 724.569 27.154C724.793 27.4247 724.964 27.721 725.08 28.043C725.197 28.365 725.276 28.68 725.318 28.988C725.36 29.296 725.381 29.5667 725.381 29.8V34H723.897ZM718.584 34V26.44H719.893V28.624H720.068V34H718.584ZM730.32 37.57C729.914 37.57 729.519 37.507 729.137 37.381C728.759 37.255 728.413 37.0683 728.101 36.821C727.788 36.5783 727.529 36.2773 727.324 35.918L728.675 35.232C728.838 35.554 729.071 35.7897 729.375 35.939C729.678 36.0883 729.998 36.163 730.334 36.163C730.749 36.163 731.104 36.0883 731.398 35.939C731.692 35.7943 731.913 35.575 732.063 35.281C732.217 34.987 732.291 34.623 732.287 34.189V32.075H732.462V26.44H733.757V34.203C733.757 34.4037 733.75 34.595 733.736 34.777C733.722 34.959 733.696 35.141 733.659 35.323C733.551 35.8317 733.346 36.2517 733.043 36.583C732.744 36.9143 732.361 37.1617 731.895 37.325C731.433 37.4883 730.908 37.57 730.32 37.57ZM730.208 34.21C729.503 34.21 728.894 34.035 728.381 33.685C727.872 33.335 727.478 32.859 727.198 32.257C726.922 31.6503 726.785 30.969 726.785 30.213C726.785 29.4523 726.925 28.7733 727.205 28.176C727.485 27.574 727.881 27.1003 728.395 26.755C728.913 26.405 729.526 26.23 730.236 26.23C730.95 26.23 731.549 26.405 732.035 26.755C732.525 27.1003 732.893 27.574 733.141 28.176C733.393 28.778 733.519 29.457 733.519 30.213C733.519 30.969 733.393 31.648 733.141 32.25C732.889 32.852 732.518 33.3303 732.028 33.685C731.538 34.035 730.931 34.21 730.208 34.21ZM730.411 32.887C730.891 32.887 731.283 32.7727 731.587 32.544C731.89 32.3153 732.112 32.0003 732.252 31.599C732.392 31.1977 732.462 30.7357 732.462 30.213C732.462 29.6903 732.389 29.2283 732.245 28.827C732.105 28.4257 731.885 28.113 731.587 27.889C731.293 27.665 730.917 27.553 730.46 27.553C729.974 27.553 729.575 27.672 729.263 27.91C728.95 28.148 728.717 28.4677 728.563 28.869C728.413 29.2703 728.339 29.7183 728.339 30.213C728.339 30.7123 728.413 31.165 728.563 31.571C728.717 31.9723 728.945 32.292 729.249 32.53C729.557 32.768 729.944 32.887 730.411 32.887Z" fill="black"/>
<path d="M975.651 34.21C974.927 34.21 974.274 34.0863 973.691 33.839C973.112 33.587 972.634 33.23 972.256 32.768C971.882 32.3013 971.64 31.7483 971.528 31.109L973.054 30.878C973.208 31.494 973.53 31.9747 974.02 32.32C974.51 32.6607 975.081 32.831 975.735 32.831C976.141 32.831 976.514 32.768 976.855 32.642C977.195 32.5113 977.468 32.327 977.674 32.089C977.884 31.8463 977.989 31.557 977.989 31.221C977.989 31.039 977.956 30.878 977.891 30.738C977.83 30.598 977.744 30.4767 977.632 30.374C977.524 30.2667 977.391 30.1757 977.233 30.101C977.079 30.0217 976.908 29.954 976.722 29.898L974.139 29.135C973.887 29.0603 973.63 28.9647 973.369 28.848C973.107 28.7267 972.867 28.5703 972.648 28.379C972.433 28.183 972.258 27.9427 972.123 27.658C971.987 27.3687 971.92 27.0187 971.92 26.608C971.92 25.9873 972.078 25.4623 972.396 25.033C972.718 24.599 973.152 24.2723 973.698 24.053C974.244 23.829 974.855 23.717 975.532 23.717C976.213 23.7263 976.822 23.8477 977.359 24.081C977.9 24.3143 978.348 24.6503 978.703 25.089C979.062 25.523 979.309 26.0503 979.445 26.671L977.877 26.937C977.807 26.559 977.657 26.2347 977.429 25.964C977.2 25.6887 976.92 25.4787 976.589 25.334C976.257 25.1847 975.898 25.1077 975.511 25.103C975.137 25.0937 974.794 25.1497 974.482 25.271C974.174 25.3923 973.926 25.5627 973.74 25.782C973.558 26.0013 973.467 26.2533 973.467 26.538C973.467 26.818 973.548 27.0443 973.712 27.217C973.875 27.3897 974.076 27.5273 974.314 27.63C974.556 27.728 974.797 27.8097 975.035 27.875L976.897 28.4C977.13 28.4653 977.394 28.554 977.688 28.666C977.986 28.7733 978.273 28.925 978.549 29.121C978.829 29.317 979.06 29.5783 979.242 29.905C979.424 30.227 979.515 30.633 979.515 31.123C979.515 31.6317 979.412 32.0797 979.207 32.467C979.001 32.8497 978.719 33.1717 978.36 33.433C978.005 33.6897 977.594 33.8833 977.128 34.014C976.661 34.1447 976.169 34.21 975.651 34.21ZM981.146 25.201V23.78H982.609V25.201H981.146ZM981.146 34V26.44H982.609V34H981.146ZM987.826 37.57C987.42 37.57 987.026 37.507 986.643 37.381C986.265 37.255 985.92 37.0683 985.607 36.821C985.295 36.5783 985.036 36.2773 984.83 35.918L986.181 35.232C986.345 35.554 986.578 35.7897 986.881 35.939C987.185 36.0883 987.504 36.163 987.84 36.163C988.256 36.163 988.61 36.0883 988.904 35.939C989.198 35.7943 989.42 35.575 989.569 35.281C989.723 34.987 989.798 34.623 989.793 34.189V32.075H989.968V26.44H991.263V34.203C991.263 34.4037 991.256 34.595 991.242 34.777C991.228 34.959 991.203 35.141 991.165 35.323C991.058 35.8317 990.853 36.2517 990.549 36.583C990.251 36.9143 989.868 37.1617 989.401 37.325C988.939 37.4883 988.414 37.57 987.826 37.57ZM987.714 34.21C987.01 34.21 986.401 34.035 985.887 33.685C985.379 33.335 984.984 32.859 984.704 32.257C984.429 31.6503 984.291 30.969 984.291 30.213C984.291 29.4523 984.431 28.7733 984.711 28.176C984.991 27.574 985.388 27.1003 985.901 26.755C986.419 26.405 987.033 26.23 987.742 26.23C988.456 26.23 989.056 26.405 989.541 26.755C990.031 27.1003 990.4 27.574 990.647 28.176C990.899 28.778 991.025 29.457 991.025 30.213C991.025 30.969 990.899 31.648 990.647 32.25C990.395 32.852 990.024 33.3303 989.534 33.685C989.044 34.035 988.438 34.21 987.714 34.21ZM987.917 32.887C988.398 32.887 988.79 32.7727 989.093 32.544C989.397 32.3153 989.618 32.0003 989.758 31.599C989.898 31.1977 989.968 30.7357 989.968 30.213C989.968 29.6903 989.896 29.2283 989.751 28.827C989.611 28.4257 989.392 28.113 989.093 27.889C988.799 27.665 988.424 27.553 987.966 27.553C987.481 27.553 987.082 27.672 986.769 27.91C986.457 28.148 986.223 28.4677 986.069 28.869C985.92 29.2703 985.845 29.7183 985.845 30.213C985.845 30.7123 985.92 31.165 986.069 31.571C986.223 31.9723 986.452 32.292 986.755 32.53C987.063 32.768 987.451 32.887 987.917 32.887ZM998.535 34V30.283C998.535 29.989 998.509 29.688 998.458 29.38C998.411 29.0673 998.318 28.778 998.178 28.512C998.043 28.246 997.849 28.0313 997.597 27.868C997.35 27.7047 997.025 27.623 996.624 27.623C996.363 27.623 996.115 27.6673 995.882 27.756C995.649 27.84 995.443 27.9777 995.266 28.169C995.093 28.3603 994.956 28.6123 994.853 28.925C994.755 29.2377 994.706 29.618 994.706 30.066L993.796 29.723C993.796 29.037 993.924 28.4327 994.181 27.91C994.438 27.3827 994.806 26.972 995.287 26.678C995.768 26.384 996.349 26.237 997.03 26.237C997.553 26.237 997.991 26.321 998.346 26.489C998.701 26.657 998.988 26.8787 999.207 27.154C999.431 27.4247 999.601 27.721 999.718 28.043C999.835 28.365 999.914 28.68 999.956 28.988C999.998 29.296 1000.02 29.5667 1000.02 29.8V34H998.535ZM993.222 34V26.44H994.531V28.624H994.706V34H993.222ZM1004.79 34V23.92H1006.25V34H1004.79ZM1013.66 34V30.283C1013.66 29.989 1013.63 29.688 1013.58 29.38C1013.53 29.0673 1013.44 28.778 1013.3 28.512C1013.16 28.246 1012.97 28.0313 1012.72 27.868C1012.47 27.7047 1012.15 27.623 1011.75 27.623C1011.48 27.623 1011.24 27.6673 1011 27.756C1010.77 27.84 1010.56 27.9777 1010.39 28.169C1010.21 28.3603 1010.08 28.6123 1009.97 28.925C1009.88 29.2377 1009.83 29.618 1009.83 30.066L1008.92 29.723C1008.92 29.037 1009.05 28.4327 1009.3 27.91C1009.56 27.3827 1009.93 26.972 1010.41 26.678C1010.89 26.384 1011.47 26.237 1012.15 26.237C1012.67 26.237 1013.11 26.321 1013.47 26.489C1013.82 26.657 1014.11 26.8787 1014.33 27.154C1014.55 27.4247 1014.72 27.721 1014.84 28.043C1014.96 28.365 1015.04 28.68 1015.08 28.988C1015.12 29.296 1015.14 29.5667 1015.14 29.8V34H1013.66ZM1008.34 34V26.44H1009.65V28.624H1009.83V34H1008.34Z" fill="black"/>
<rect x="1065" width="137" height="52" rx="10" fill="#4F46BA"/>
<path d="M1105.01 32.21C1104.28 32.21 1103.63 32.0863 1103.05 31.839C1102.47 31.587 1101.99 31.23 1101.61 30.768C1101.24 30.3013 1101 29.7483 1100.88 29.109L1102.41 28.878C1102.56 29.494 1102.89 29.9747 1103.38 30.32C1103.87 30.6607 1104.44 30.831 1105.09 30.831C1105.5 30.831 1105.87 30.768 1106.21 30.642C1106.55 30.5113 1106.82 30.327 1107.03 30.089C1107.24 29.8463 1107.35 29.557 1107.35 29.221C1107.35 29.039 1107.31 28.878 1107.25 28.738C1107.19 28.598 1107.1 28.4767 1106.99 28.374C1106.88 28.2667 1106.75 28.1757 1106.59 28.101C1106.44 28.0217 1106.26 27.954 1106.08 27.898L1103.5 27.135C1103.24 27.0603 1102.99 26.9647 1102.73 26.848C1102.46 26.7267 1102.22 26.5703 1102 26.379C1101.79 26.183 1101.61 25.9427 1101.48 25.658C1101.34 25.3687 1101.28 25.0187 1101.28 24.608C1101.28 23.9873 1101.43 23.4623 1101.75 23.033C1102.07 22.599 1102.51 22.2723 1103.05 22.053C1103.6 21.829 1104.21 21.717 1104.89 21.717C1105.57 21.7263 1106.18 21.8477 1106.72 22.081C1107.26 22.3143 1107.7 22.6503 1108.06 23.089C1108.42 23.523 1108.67 24.0503 1108.8 24.671L1107.23 24.937C1107.16 24.559 1107.01 24.2347 1106.79 23.964C1106.56 23.6887 1106.28 23.4787 1105.95 23.334C1105.61 23.1847 1105.25 23.1077 1104.87 23.103C1104.49 23.0937 1104.15 23.1497 1103.84 23.271C1103.53 23.3923 1103.28 23.5627 1103.1 23.782C1102.91 24.0013 1102.82 24.2533 1102.82 24.538C1102.82 24.818 1102.9 25.0443 1103.07 25.217C1103.23 25.3897 1103.43 25.5273 1103.67 25.63C1103.91 25.728 1104.15 25.8097 1104.39 25.875L1106.25 26.4C1106.49 26.4653 1106.75 26.554 1107.04 26.666C1107.34 26.7733 1107.63 26.925 1107.91 27.121C1108.19 27.317 1108.42 27.5783 1108.6 27.905C1108.78 28.227 1108.87 28.633 1108.87 29.123C1108.87 29.6317 1108.77 30.0797 1108.56 30.467C1108.36 30.8497 1108.08 31.1717 1107.72 31.433C1107.36 31.6897 1106.95 31.8833 1106.48 32.014C1106.02 32.1447 1105.53 32.21 1105.01 32.21ZM1114.69 32C1114.21 32.0933 1113.75 32.133 1113.29 32.119C1112.83 32.105 1112.42 32.0163 1112.06 31.853C1111.7 31.6897 1111.43 31.433 1111.25 31.083C1111.09 30.7703 1111 30.453 1110.99 30.131C1110.98 29.8043 1110.97 29.4357 1110.97 29.025V22.34H1112.44V28.955C1112.44 29.2583 1112.44 29.522 1112.45 29.746C1112.46 29.97 1112.51 30.159 1112.6 30.313C1112.76 30.6023 1113.03 30.768 1113.39 30.81C1113.76 30.8473 1114.19 30.831 1114.69 30.761V32ZM1109.52 25.616V24.44H1114.69V25.616H1109.52ZM1118.42 32.21C1117.86 32.21 1117.39 32.1073 1117.01 31.902C1116.63 31.692 1116.35 31.4167 1116.15 31.076C1115.96 30.7307 1115.86 30.3527 1115.86 29.942C1115.86 29.5593 1115.93 29.2233 1116.07 28.934C1116.2 28.6447 1116.4 28.3997 1116.67 28.199C1116.93 27.9937 1117.26 27.828 1117.65 27.702C1117.98 27.604 1118.36 27.5177 1118.79 27.443C1119.21 27.3683 1119.66 27.2983 1120.13 27.233C1120.6 27.1677 1121.06 27.1023 1121.53 27.037L1120.99 27.331C1121 26.7383 1120.88 26.2997 1120.62 26.015C1120.36 25.7257 1119.92 25.581 1119.29 25.581C1118.89 25.581 1118.53 25.6743 1118.19 25.861C1117.86 26.043 1117.63 26.3463 1117.5 26.771L1116.14 26.351C1116.32 25.7023 1116.68 25.1867 1117.2 24.804C1117.73 24.4213 1118.43 24.23 1119.3 24.23C1119.98 24.23 1120.56 24.3467 1121.06 24.58C1121.57 24.8087 1121.94 25.1727 1122.17 25.672C1122.29 25.9193 1122.37 26.1807 1122.39 26.456C1122.42 26.7313 1122.44 27.0277 1122.44 27.345V32H1121.14V30.271L1121.39 30.495C1121.08 31.0737 1120.68 31.5053 1120.2 31.79C1119.72 32.07 1119.12 32.21 1118.42 32.21ZM1118.68 31.013C1119.09 31.013 1119.45 30.9407 1119.75 30.796C1120.05 30.6467 1120.29 30.4577 1120.47 30.229C1120.65 30.0003 1120.77 29.7623 1120.83 29.515C1120.91 29.291 1120.95 29.039 1120.96 28.759C1120.97 28.479 1120.98 28.255 1120.98 28.087L1121.46 28.262C1120.99 28.332 1120.57 28.395 1120.2 28.451C1119.82 28.507 1119.47 28.563 1119.17 28.619C1118.86 28.6703 1118.59 28.7333 1118.35 28.808C1118.15 28.878 1117.97 28.962 1117.82 29.06C1117.66 29.158 1117.54 29.277 1117.44 29.417C1117.36 29.557 1117.31 29.7273 1117.31 29.928C1117.31 30.124 1117.36 30.306 1117.46 30.474C1117.56 30.6373 1117.71 30.768 1117.91 30.866C1118.11 30.964 1118.36 31.013 1118.68 31.013ZM1124.25 32V24.44H1125.56V26.274L1125.37 26.036C1125.47 25.7933 1125.59 25.5717 1125.74 25.371C1125.89 25.1657 1126.06 24.9977 1126.26 24.867C1126.45 24.727 1126.66 24.6197 1126.89 24.545C1127.13 24.4657 1127.37 24.419 1127.62 24.405C1127.87 24.3863 1128.11 24.398 1128.33 24.44V25.812C1128.09 25.7467 1127.81 25.728 1127.51 25.756C1127.21 25.784 1126.93 25.8797 1126.68 26.043C1126.44 26.197 1126.26 26.3837 1126.12 26.603C1125.98 26.8223 1125.88 27.0673 1125.82 27.338C1125.76 27.604 1125.73 27.8863 1125.73 28.185V32H1124.25ZM1133.99 32C1133.52 32.0933 1133.05 32.133 1132.59 32.119C1132.14 32.105 1131.73 32.0163 1131.37 31.853C1131.01 31.6897 1130.74 31.433 1130.56 31.083C1130.39 30.7703 1130.3 30.453 1130.29 30.131C1130.28 29.8043 1130.28 29.4357 1130.28 29.025V22.34H1131.75V28.955C1131.75 29.2583 1131.75 29.522 1131.75 29.746C1131.76 29.97 1131.81 30.159 1131.9 30.313C1132.07 30.6023 1132.33 30.768 1132.7 30.81C1133.07 30.8473 1133.5 30.831 1133.99 30.761V32ZM1128.83 25.616V24.44H1133.99V25.616H1128.83ZM1138.39 32V21.92H1144.36V23.383H1139.85V26.225H1143.52V27.695H1139.85V32H1138.39ZM1145.62 32V24.44H1146.92V26.274L1146.74 26.036C1146.84 25.7933 1146.96 25.5717 1147.11 25.371C1147.26 25.1657 1147.43 24.9977 1147.62 24.867C1147.82 24.727 1148.03 24.6197 1148.26 24.545C1148.5 24.4657 1148.74 24.419 1148.99 24.405C1149.24 24.3863 1149.47 24.398 1149.7 24.44V25.812C1149.46 25.7467 1149.18 25.728 1148.88 25.756C1148.58 25.784 1148.3 25.8797 1148.05 26.043C1147.81 26.197 1147.62 26.3837 1147.48 26.603C1147.35 26.8223 1147.25 27.0673 1147.19 27.338C1147.13 27.604 1147.1 27.8863 1147.1 28.185V32H1145.62ZM1154.25 32.21C1153.5 32.21 1152.84 32.0467 1152.27 31.72C1151.71 31.3887 1151.27 30.929 1150.95 30.341C1150.64 29.7483 1150.48 29.0623 1150.48 28.283C1150.48 27.457 1150.63 26.7407 1150.94 26.134C1151.25 25.5273 1151.69 25.0583 1152.24 24.727C1152.8 24.3957 1153.45 24.23 1154.18 24.23C1154.95 24.23 1155.61 24.4097 1156.15 24.769C1156.69 25.1237 1157.09 25.63 1157.36 26.288C1157.63 26.946 1157.74 27.7277 1157.68 28.633H1156.22V28.101C1156.21 27.2237 1156.04 26.575 1155.72 26.155C1155.39 25.735 1154.9 25.525 1154.24 25.525C1153.51 25.525 1152.96 25.756 1152.59 26.218C1152.22 26.68 1152.03 27.3473 1152.03 28.22C1152.03 29.0507 1152.22 29.6947 1152.59 30.152C1152.96 30.6047 1153.49 30.831 1154.18 30.831C1154.64 30.831 1155.03 30.7283 1155.37 30.523C1155.7 30.313 1155.96 30.0143 1156.15 29.627L1157.58 30.082C1157.29 30.7587 1156.85 31.2837 1156.25 31.657C1155.65 32.0257 1154.99 32.21 1154.25 32.21ZM1151.56 28.633V27.492H1156.95V28.633H1151.56ZM1162.61 32.21C1161.86 32.21 1161.19 32.0467 1160.63 31.72C1160.06 31.3887 1159.62 30.929 1159.3 30.341C1158.99 29.7483 1158.83 29.0623 1158.83 28.283C1158.83 27.457 1158.99 26.7407 1159.3 26.134C1159.61 25.5273 1160.04 25.0583 1160.6 24.727C1161.15 24.3957 1161.8 24.23 1162.54 24.23C1163.31 24.23 1163.96 24.4097 1164.5 24.769C1165.04 25.1237 1165.45 25.63 1165.71 26.288C1165.99 26.946 1166.09 27.7277 1166.04 28.633H1164.57V28.101C1164.56 27.2237 1164.4 26.575 1164.07 26.155C1163.75 25.735 1163.26 25.525 1162.59 25.525C1161.86 25.525 1161.31 25.756 1160.94 26.218C1160.57 26.68 1160.39 27.3473 1160.39 28.22C1160.39 29.0507 1160.57 29.6947 1160.94 30.152C1161.31 30.6047 1161.84 30.831 1162.54 30.831C1162.99 30.831 1163.39 30.7283 1163.72 30.523C1164.06 30.313 1164.32 30.0143 1164.5 29.627L1165.94 30.082C1165.64 30.7587 1165.2 31.2837 1164.6 31.657C1164 32.0257 1163.34 32.21 1162.61 32.21ZM1159.91 28.633V27.492H1165.31V28.633H1159.91Z" fill="white"/>
<path d="M6.52922 33.28C5.15589 33.28 3.99589 32.9733 3.04922 32.36C2.10255 31.7467 1.42922 30.9 1.02922 29.82L3.38922 28.44C3.93589 29.8667 5.00922 30.58 6.60922 30.58C7.35589 30.58 7.91589 30.4467 8.28922 30.18C8.66255 29.9133 8.84922 29.5533 8.84922 29.1C8.84922 28.6067 8.62922 28.2267 8.18922 27.96C7.74922 27.68 6.96255 27.38 5.82922 27.06C4.60255 26.6867 3.63589 26.2533 2.92922 25.76C2.04922 25.1067 1.60922 24.1467 1.60922 22.88C1.60922 21.6 2.05589 20.5933 2.94922 19.86C3.84255 19.1 4.92922 18.72 6.20922 18.72C7.32922 18.72 8.32255 18.9933 9.18922 19.54C10.0559 20.0867 10.7292 20.86 11.2092 21.86L8.88922 23.2C8.32922 22 7.43589 21.4 6.20922 21.4C5.64922 21.4 5.20255 21.5333 4.86922 21.8C4.53589 22.0533 4.36922 22.3867 4.36922 22.8C4.36922 23.24 4.54922 23.6 4.90922 23.88C5.30922 24.16 6.01589 24.4533 7.02922 24.76L7.98922 25.08C8.16255 25.1333 8.46255 25.2467 8.88922 25.42C9.28922 25.5667 9.58255 25.7067 9.76922 25.84C10.4226 26.24 10.8626 26.6533 11.0892 27.08C11.4359 27.64 11.6092 28.3 11.6092 29.06C11.6092 30.3533 11.1359 31.38 10.1892 32.14C9.24255 32.9 8.02255 33.28 6.52922 33.28ZM21.2717 24.56V19H24.0117V33H21.2717V27.2H16.0717V33H13.3117V19H16.0717V24.56H21.2717ZM38.6125 33H35.6125L34.7725 30.48H29.1925L28.3525 33H25.3725L30.2725 19H33.6925L38.6125 33ZM31.9925 22.18L30.0725 27.9H33.9125L31.9925 22.18ZM39.9719 19H45.1919C46.5252 19 47.6585 19.4533 48.5919 20.36C49.5119 21.2667 49.9719 22.38 49.9719 23.7C49.9719 25.02 49.5119 26.1333 48.5919 27.04C47.6585 27.9467 46.5252 28.4 45.1919 28.4H42.7319V33H39.9719V19ZM42.7319 25.82H45.1919C45.7785 25.82 46.2652 25.62 46.6519 25.22C47.0385 24.8067 47.2319 24.3 47.2319 23.7C47.2319 23.0867 47.0385 22.58 46.6519 22.18C46.2652 21.78 45.7785 21.58 45.1919 21.58H42.7319V25.82ZM54.5288 27.22V30.36H60.4288V33H51.7688V19H60.3288V21.64H54.5288V24.62H59.8288V27.22H54.5288ZM69.2542 33H65.8342L61.1342 19H64.1342L67.5542 29.76L70.9542 19H73.9742L69.2542 33ZM86.4784 31.18C85.0651 32.58 83.3451 33.28 81.3184 33.28C79.2918 33.28 77.5718 32.58 76.1584 31.18C74.7584 29.7533 74.0584 28.0267 74.0584 26C74.0584 23.96 74.7584 22.24 76.1584 20.84C77.5718 19.4267 79.2918 18.72 81.3184 18.72C83.3451 18.72 85.0651 19.4267 86.4784 20.84C87.8918 22.24 88.5984 23.96 88.5984 26C88.5984 28.04 87.8918 29.7667 86.4784 31.18ZM78.0984 29.3C78.9518 30.1533 80.0251 30.58 81.3184 30.58C82.6118 30.58 83.6851 30.1533 84.5384 29.3C85.4051 28.4333 85.8384 27.3333 85.8384 26C85.8384 24.6667 85.4051 23.5667 84.5384 22.7C83.6718 21.8333 82.5984 21.4 81.3184 21.4C80.0384 21.4 78.9651 21.8333 78.0984 22.7C77.2318 23.5667 76.7984 24.6667 76.7984 26C76.7984 27.3333 77.2318 28.4333 78.0984 29.3ZM90.5383 33V19H93.2983V33H90.5383ZM102.53 33.28C100.437 33.28 98.6965 32.58 97.3098 31.18C95.9365 29.7933 95.2498 28.0667 95.2498 26C95.2498 23.92 95.9365 22.1933 97.3098 20.82C98.6965 19.42 100.437 18.72 102.53 18.72C103.797 18.72 104.963 19.02 106.03 19.62C107.11 20.2067 107.95 21.0067 108.55 22.02L106.17 23.4C105.823 22.7733 105.33 22.2867 104.69 21.94C104.05 21.58 103.33 21.4 102.53 21.4C101.17 21.4 100.07 21.8267 99.2298 22.68C98.4032 23.5467 97.9898 24.6533 97.9898 26C97.9898 27.3333 98.4032 28.4333 99.2298 29.3C100.07 30.1533 101.17 30.58 102.53 30.58C103.33 30.58 104.05 30.4067 104.69 30.06C105.343 29.7 105.837 29.2133 106.17 28.6L108.55 29.98C107.95 30.9933 107.11 31.8 106.03 32.4C104.963 32.9867 103.797 33.28 102.53 33.28ZM113.005 27.22V30.36H118.905V33H110.245V19H118.805V21.64H113.005V24.62H118.305V27.22H113.005Z" fill="black"/>
</svg>
